<svg id="Layer_1" data-name="Layer 1" xmlns="http://www.w3.org/2000/svg" viewBox="0 0 400 338.98"><path d="M448.19,192.68,256.91,88.35a19.15,19.15,0,0,0-18.32,0l-170.47,93a19.12,19.12,0,0,0,0,33.58l74.42,40.6,96.05,52.38a19.1,19.1,0,0,0,18.32,0l96-52.38,38.68-21.1A19.13,19.13,0,0,1,419.9,251.2V332a19.13,19.13,0,0,0,38.26,0V209.48A19.16,19.16,0,0,0,448.19,192.68Z" transform="translate(-58.16 -86.01)" fill="#fff"/><path d="M353.35,293.52l-96.44,52.63a19.17,19.17,0,0,1-18.33,0l-96.44-52.63a19.13,19.13,0,0,0-28.29,16.79v32.93a19.11,19.11,0,0,0,10,16.79l114.76,62.63a19.12,19.12,0,0,0,18.33,0L371.68,360a19.12,19.12,0,0,0,10-16.79V310.31A19.13,19.13,0,0,0,353.35,293.52Z" transform="translate(-58.16 -86.01)" fill="#fff"/></svg>